<?xml version="1.0" encoding="UTF-8"?>
<svg id="_레이어_1" data-name="레이어_1" xmlns="http://www.w3.org/2000/svg" version="1.1" viewBox="0 0 16 16">
  <!-- Generator: Adobe Illustrator 29.2.0, SVG Export Plug-In . SVG Version: 2.1.0 Build 108)  -->
  <defs>
    <style>
      .st0 {
        fill: #fff;
      }

      .st1 {
        fill: #c7f860;
      }

      .st2 {
        fill: none;
      }
    </style>
  </defs>
  <path class="st2" d="M12,6c0-1.9-1.3-3.5-3.2-3.9l-.8-.2-.8.2c-1.9.4-3.2,2-3.2,3.9,0,.6-.1,2.2-.5,3.7-.2.8-.4,1.6-.7,2.3h10.2c-.3-.7-.5-1.5-.7-2.3-.3-1.5-.5-3.1-.5-3.7Z"/>
  <path class="st0" d="M14.2,12c-.9-1.8-1.2-5.1-1.2-6,0-2.4-1.7-4.4-4-4.9,0,0,0-.1,0-.2,0-.5-.5-1-1.1-.9-.5,0-1,.5-.9,1.1-2.3.5-4,2.5-4,4.9s-.3,4.2-1.2,6c-.2.4-.5.8-.8,1h14c-.3-.2-.6-.6-.8-1ZM2.9,12c.3-.7.5-1.5.7-2.3.3-1.5.5-3.1.5-3.7,0-1.9,1.3-3.5,3.2-3.9l.8-.2.8.2c1.9.4,3.2,2,3.2,3.9,0,.6.1,2.2.5,3.7.2.8.4,1.6.7,2.3H2.9Z"/>
  <path class="st1" d="M8,16c1.1,0,2-.9,2-2h-4c0,1.1.9,2,2,2Z"/>
</svg>