<?xml version="1.0" encoding="UTF-8"?>
<svg id="_레이어_1" data-name="레이어_1" xmlns="http://www.w3.org/2000/svg" version="1.1" viewBox="0 0 576 512">
  <!-- Generator: Adobe Illustrator 29.2.0, SVG Export Plug-In . SVG Version: 2.1.0 Build 108)  -->
  <defs>
    <style>
      .st0 {
        fill: #fff;
      }

      .st1 {
        fill: #c7f860;
      }
    </style>
  </defs>
  <g>
    <rect class="st1" x="246.3" y="269" width="83.9" height="112.9"/>
    <path class="st0" d="M429.5,255.7c0,8.8-7.4,15.8-15.7,15.8h-15.7l.3,78.8c0,1.3,0,2.7-.2,4v8c0,10.9-8.8,19.7-19.7,19.7h-7.9c-.5,0-1.1,0-1.6,0-.7,0-1.4,0-2.1,0h-16s-31.5,0-31.5,0v-94.1c0-8.7-7-15.7-15.7-15.7h-31.5c-8.7,0-15.7,7-15.7,15.7v94.1h-47.1c-.7,0-1.5,0-2.2,0-.6,0-1.2,0-1.8,0h-7.9c-10.9,0-19.7-8.8-19.7-19.7v-55.1c0-.4,0-.9,0-1.4v-34.3h-15.7c-8.8,0-15.7-6.9-15.7-15.8s1.5-8.4,4.9-11.8l126-109.8c3.4-3.4,7.4-3.9,10.8-3.9s7.4,1,10.3,3.4l125.6,110.4c3.9,3.4,5.9,7.4,5.4,11.8Z"/>
  </g>
  <path class="st0" d="M288,512.1c-141.4,0-256-114.6-256-256S146.6,0,288,0s256,114.6,256,256-114.6,256-256,256ZM517.8,256c0-126.9-102.9-229.8-229.8-229.8S58.2,129.1,58.2,256s102.9,229.8,229.8,229.8,229.8-102.9,229.8-229.8Z"/>
</svg>