<?xml version="1.0" encoding="UTF-8"?>
<svg id="_레이어_1" xmlns="http://www.w3.org/2000/svg" version="1.1" viewBox="0 0 576 512">
  <!-- Generator: Adobe Illustrator 29.2.0, SVG Export Plug-In . SVG Version: 2.1.0 Build 108)  -->
  <defs>
    <style>
      .st0 {
        fill: #fff;
      }

      .st1 {
        fill: #c7f860;
      }

      .st2 {
        fill: none;
      }
    </style>
  </defs>
  <g>
    <rect class="st1" x="203.2" y="282.3" width="170.7" height="229.7"/>
    <path class="st0" d="M575.9,255.3c0,17.9-15.1,32.1-31.9,32.1h-31.9l.6,160.3c0,2.6,0,5.5-.4,8.1v16.3c0,22.2-17.9,40.1-40.1,40.1h-120.2v-191.4c0-17.7-14.2-31.9-31.9-31.9h-64.1c-17.7,0-31.9,14.2-31.9,31.9v191.4h-120c-22.2,0-40.1-17.9-40.1-40.1v-184.7h-31.9C14.1,287.4,0,273.4,0,255.3s3.1-17.1,10-24L266.3,7.9c6.9-6.9,15.1-7.9,22-7.9s15.1,2,21,6.9l255.5,224.6c7.9,6.9,12,15.1,11,24h.2v-.2Z"/>
  </g>
  <rect class="st2" x="0" width="576" height="576"/>
</svg>