<?xml version="1.0" encoding="UTF-8"?>
<svg id="_레이어_1" data-name="레이어_1" xmlns="http://www.w3.org/2000/svg" version="1.1" viewBox="0 0 512 512">
  <!-- Generator: Adobe Illustrator 29.2.0, SVG Export Plug-In . SVG Version: 2.1.0 Build 108)  -->
  <defs>
    <style>
      .st0 {
        fill: #fff;
      }

      .st1 {
        fill: #c7f860;
      }

      .st2 {
        fill: none;
      }
    </style>
  </defs>
  <path class="st2" d="M256.3,80c-124.7,0-208,80.5-208,160s83.3,160,208,160,61.3-5.5,87.8-15.1c15-5.4,31.7-3.1,44.6,6.4,8.2,6,22.3,14.8,39.4,22.7-5.6-14.7-9.9-31.3-11.3-49.4-1-12.9,3.3-25.7,11.8-35.5,23.3-26.3,35.7-57.1,35.7-89.1,0-79.5-83.3-160-208-160ZM144.3,272c-17.7,0-32-14.3-32-32s14.3-32,32-32,32,14.3,32,32-14.3,32-32,32ZM256.3,272c-17.7,0-32-14.3-32-32s14.3-32,32-32,32,14.3,32,32-14.3,32-32,32ZM368.3,272c-17.7,0-32-14.3-32-32s14.3-32,32-32,32,14.3,32,32-14.3,32-32,32Z"/>
  <circle class="st1" cx="256.3" cy="240" r="32"/>
  <circle class="st1" cx="144.3" cy="240" r="32"/>
  <circle class="st1" cx="368.3" cy="240" r="32"/>
  <path class="st0" d="M496.2,439.3c-1.6-2.3-3.2-4.6-4.8-6.9l-.3-.5c-1.8-2.7-3.5-5.4-5.1-8.1-10-16.6-19.5-38.4-21.4-62.9,30-34.1,47.7-75.8,47.7-120.9,0-114.9-114.6-208-256-208S0,125.1,0,240s114.6,208,256,208c37.1,0,72.3-6.4,104.1-17.9,11.9,8.7,31.4,20.6,54.3,30.6,15.2,6.6,32.3,12.6,50.1,16.1.8.2,1.6.4,2.4.5,4.4.8,8.8,1.4,13.2,1.9h.7c5.1.6,10.2.9,15.3.9s12.3-3.9,14.8-9.9,1.2-12.8-3.4-17.4c-4-4.2-7.8-8.8-11.3-13.5ZM428.6,329.1c-8.5,9.8-12.8,22.6-11.8,35.5,1.4,18.1,5.7,34.7,11.3,49.4-17.1-7.9-31.2-16.7-39.4-22.7-12.9-9.5-29.6-11.8-44.6-6.4-26.5,9.6-56.2,15.1-87.8,15.1-124.7,0-208-80.5-208-160s83.3-160,208-160,208,80.5,208,160-12.4,62.8-35.7,89.1Z"/>
</svg>