<?xml version="1.0" encoding="UTF-8"?>
<svg id="_레이어_1" xmlns="http://www.w3.org/2000/svg" version="1.1" viewBox="0 0 16 16">
  <!-- Generator: Adobe Illustrator 29.2.0, SVG Export Plug-In . SVG Version: 2.1.0 Build 108)  -->
  <defs>
    <style>
      .st0 {
        fill: #fff;
        fill-rule: evenodd;
      }

      .st1 {
        fill: #c7f860;
      }
    </style>
  </defs>
  <path class="st1" d="M11,6c0,1.7-1.3,3-3,3s-3-1.3-3-3,1.3-3,3-3,3,1.3,3,3"/>
  <path class="st0" d="M0,8C0,3.6,3.6,0,8,0s8,3.6,8,8-3.6,8-8,8S0,12.4,0,8M8,1c-3.9,0-7,3.1-7,7s.5,3.1,1.5,4.4c.7-1.1,2.3-2.4,5.5-2.4s4.8,1.2,5.5,2.4c2.4-3,1.9-7.4-1.1-9.8-1.2-1-2.8-1.6-4.4-1.6"/>
</svg>